<mxfile host="app.diagrams.net" modified="2021-07-08T07:51:36.046Z" agent="5.0 (Windows NT 10.0; Win64; x64) AppleWebKit/537.36 (KHTML, like Gecko) Chrome/91.0.4472.124 Safari/537.36" etag="KoDIN9LsuXM-s1iBJXdv" version="14.3.0" type="github">
  <diagram id="o-8jJQwRNSZP8_r5qZx2" name="Страница 1">
    <mxGraphModel dx="1038" dy="489" grid="1" gridSize="10" guides="1" tooltips="1" connect="1" arrows="1" fold="1" page="1" pageScale="1" pageWidth="850" pageHeight="1100" math="0" shadow="0">
      <root>
        <mxCell id="0" />
        <mxCell id="1" parent="0" />
        <mxCell id="HoSw1rWqRXUjWcolSCxQ-2" value="&lt;b&gt;Приложение&lt;br&gt;Android&lt;/b&gt;&lt;br&gt;(Java, Kotlin)" style="ellipse;whiteSpace=wrap;html=1;" parent="1" vertex="1">
          <mxGeometry x="80" y="40" width="120" height="80" as="geometry" />
        </mxCell>
        <mxCell id="HoSw1rWqRXUjWcolSCxQ-3" value="&lt;b&gt;Приложение&lt;br&gt;IOS&lt;/b&gt;&lt;br&gt;(Objective C)" style="ellipse;whiteSpace=wrap;html=1;" parent="1" vertex="1">
          <mxGeometry x="280" y="40" width="120" height="80" as="geometry" />
        </mxCell>
        <mxCell id="HoSw1rWqRXUjWcolSCxQ-6" value="&lt;b&gt;Сервер ИБ/МП&lt;/b&gt;&lt;br&gt;(Java, Spring, Apache Tomcat)" style="rounded=0;whiteSpace=wrap;html=1;align=center;spacingLeft=100;spacingBottom=0;" parent="1" vertex="1">
          <mxGeometry x="160" y="200" width="370" height="80" as="geometry" />
        </mxCell>
        <mxCell id="HoSw1rWqRXUjWcolSCxQ-7" value="" style="endArrow=none;html=1;entryX=0.324;entryY=0;entryDx=0;entryDy=0;entryPerimeter=0;" parent="1" target="HoSw1rWqRXUjWcolSCxQ-6" edge="1">
          <mxGeometry width="50" height="50" relative="1" as="geometry">
            <mxPoint x="280" y="260" as="sourcePoint" />
            <mxPoint x="224" y="210" as="targetPoint" />
          </mxGeometry>
        </mxCell>
        <mxCell id="HoSw1rWqRXUjWcolSCxQ-8" value="XSLT преобразования запросов" style="text;html=1;strokeColor=none;fillColor=none;align=center;verticalAlign=middle;whiteSpace=wrap;rounded=0;" parent="1" vertex="1">
          <mxGeometry x="200" y="220" width="40" height="20" as="geometry" />
        </mxCell>
        <mxCell id="HoSw1rWqRXUjWcolSCxQ-4" value="&lt;b&gt;ИБ веб-версия&lt;/b&gt;&lt;br&gt;(HTML, CSS, JS, XSLT)" style="ellipse;whiteSpace=wrap;html=1;" parent="1" vertex="1">
          <mxGeometry x="460" y="160" width="120" height="80" as="geometry" />
        </mxCell>
        <mxCell id="HoSw1rWqRXUjWcolSCxQ-11" value="" style="endArrow=classic;startArrow=classic;html=1;exitX=0.066;exitY=0.008;exitDx=0;exitDy=0;exitPerimeter=0;" parent="1" source="HoSw1rWqRXUjWcolSCxQ-6" edge="1">
          <mxGeometry width="50" height="50" relative="1" as="geometry">
            <mxPoint x="90" y="170" as="sourcePoint" />
            <mxPoint x="140" y="120" as="targetPoint" />
          </mxGeometry>
        </mxCell>
        <mxCell id="HoSw1rWqRXUjWcolSCxQ-12" value="" style="endArrow=none;html=1;exitX=0;exitY=0.75;exitDx=0;exitDy=0;" parent="1" source="HoSw1rWqRXUjWcolSCxQ-6" edge="1">
          <mxGeometry width="50" height="50" relative="1" as="geometry">
            <mxPoint x="230" y="310" as="sourcePoint" />
            <mxPoint x="280" y="260" as="targetPoint" />
          </mxGeometry>
        </mxCell>
        <mxCell id="HoSw1rWqRXUjWcolSCxQ-13" value="" style="endArrow=classic;startArrow=classic;html=1;exitX=0.25;exitY=0;exitDx=0;exitDy=0;" parent="1" source="HoSw1rWqRXUjWcolSCxQ-6" edge="1">
          <mxGeometry width="50" height="50" relative="1" as="geometry">
            <mxPoint x="290" y="170" as="sourcePoint" />
            <mxPoint x="340" y="120" as="targetPoint" />
          </mxGeometry>
        </mxCell>
        <mxCell id="HoSw1rWqRXUjWcolSCxQ-14" value="&lt;b&gt;Шина данных ESB&lt;/b&gt;" style="rounded=0;whiteSpace=wrap;html=1;align=center;" parent="1" vertex="1">
          <mxGeometry x="470" y="330" width="190" height="80" as="geometry" />
        </mxCell>
        <mxCell id="HoSw1rWqRXUjWcolSCxQ-15" value="&lt;b&gt;БД&lt;br&gt;Message Gate&lt;/b&gt;" style="shape=cylinder3;whiteSpace=wrap;html=1;boundedLbl=1;backgroundOutline=1;size=15;align=center;" parent="1" vertex="1">
          <mxGeometry x="720" y="130" width="80" height="110" as="geometry" />
        </mxCell>
        <mxCell id="HoSw1rWqRXUjWcolSCxQ-17" value="&lt;b&gt;БД&lt;br&gt;Fraudkill&lt;/b&gt;" style="shape=cylinder3;whiteSpace=wrap;html=1;boundedLbl=1;backgroundOutline=1;size=15;align=center;" parent="1" vertex="1">
          <mxGeometry x="750" y="280" width="80" height="110" as="geometry" />
        </mxCell>
        <mxCell id="HoSw1rWqRXUjWcolSCxQ-18" value="" style="endArrow=classic;startArrow=classic;html=1;entryX=0.75;entryY=1;entryDx=0;entryDy=0;exitX=0.5;exitY=0;exitDx=0;exitDy=0;" parent="1" source="HoSw1rWqRXUjWcolSCxQ-14" target="HoSw1rWqRXUjWcolSCxQ-6" edge="1">
          <mxGeometry width="50" height="50" relative="1" as="geometry">
            <mxPoint x="400" y="340" as="sourcePoint" />
            <mxPoint x="450" y="290" as="targetPoint" />
          </mxGeometry>
        </mxCell>
        <mxCell id="HoSw1rWqRXUjWcolSCxQ-19" value="" style="endArrow=classic;startArrow=classic;html=1;entryX=0;entryY=1;entryDx=0;entryDy=-15;entryPerimeter=0;exitX=0.75;exitY=0;exitDx=0;exitDy=0;" parent="1" source="HoSw1rWqRXUjWcolSCxQ-14" target="HoSw1rWqRXUjWcolSCxQ-15" edge="1">
          <mxGeometry width="50" height="50" relative="1" as="geometry">
            <mxPoint x="600" y="330" as="sourcePoint" />
            <mxPoint x="650" y="280" as="targetPoint" />
          </mxGeometry>
        </mxCell>
        <mxCell id="HoSw1rWqRXUjWcolSCxQ-20" value="" style="endArrow=classic;startArrow=classic;html=1;exitX=1.011;exitY=0.403;exitDx=0;exitDy=0;exitPerimeter=0;entryX=0;entryY=0.5;entryDx=0;entryDy=0;entryPerimeter=0;" parent="1" source="HoSw1rWqRXUjWcolSCxQ-14" target="HoSw1rWqRXUjWcolSCxQ-17" edge="1">
          <mxGeometry width="50" height="50" relative="1" as="geometry">
            <mxPoint x="690" y="400" as="sourcePoint" />
            <mxPoint x="740" y="350" as="targetPoint" />
          </mxGeometry>
        </mxCell>
        <mxCell id="HoSw1rWqRXUjWcolSCxQ-21" value="&lt;b&gt;АБС Форпост (ФП)&lt;/b&gt;" style="whiteSpace=wrap;html=1;aspect=fixed;align=center;" parent="1" vertex="1">
          <mxGeometry x="480" y="520" width="170" height="170" as="geometry" />
        </mxCell>
        <mxCell id="HoSw1rWqRXUjWcolSCxQ-22" value="&lt;b&gt;&lt;span style=&quot;color: rgba(0 , 0 , 0 , 0) ; font-family: monospace ; font-size: 0px&quot;&gt;%3CmxGraphModel%3E%3Croot%3E%3CmxCell%20id%3D%220%22%2F%3E%3CmxCell%20id%3D%221%22%20parent%3D%220%22%2F%3E%3CmxCell%20id%3D%222%22%20value%3D%22%D0%90%D0%91%D0%A1%20ForPost%22%20style%3D%22whiteSpace%3Dwrap%3Bhtml%3D1%3Baspect%3Dfixed%3Balign%3Dcenter%3B%22%20vertex%3D%221%22%20parent%3D%221%22%3E%3CmxGeometry%20x%3D%22560%22%20y%3D%22480%22%20width%3D%22170%22%20height%3D%22170%22%20as%3D%22geometry%22%2F%3E%3C%2FmxCell%3E%3C%2Froot%3E%3C%2FmxGraphModel%3E&lt;/span&gt;TranzWare Online (TWO)&lt;/b&gt;" style="whiteSpace=wrap;html=1;aspect=fixed;align=center;" parent="1" vertex="1">
          <mxGeometry x="120" y="480" width="170" height="170" as="geometry" />
        </mxCell>
        <mxCell id="HoSw1rWqRXUjWcolSCxQ-23" value="" style="endArrow=classic;startArrow=classic;html=1;entryX=0.25;entryY=1;entryDx=0;entryDy=0;" parent="1" target="HoSw1rWqRXUjWcolSCxQ-6" edge="1">
          <mxGeometry width="50" height="50" relative="1" as="geometry">
            <mxPoint x="200" y="480" as="sourcePoint" />
            <mxPoint x="250" y="430" as="targetPoint" />
          </mxGeometry>
        </mxCell>
        <mxCell id="HoSw1rWqRXUjWcolSCxQ-24" value="" style="endArrow=classic;startArrow=classic;html=1;entryX=0.5;entryY=1;entryDx=0;entryDy=0;exitX=0.5;exitY=0;exitDx=0;exitDy=0;" parent="1" source="HoSw1rWqRXUjWcolSCxQ-21" target="HoSw1rWqRXUjWcolSCxQ-14" edge="1">
          <mxGeometry width="50" height="50" relative="1" as="geometry">
            <mxPoint x="400" y="540" as="sourcePoint" />
            <mxPoint x="450" y="490" as="targetPoint" />
          </mxGeometry>
        </mxCell>
        <mxCell id="HoSw1rWqRXUjWcolSCxQ-25" value="" style="endArrow=none;dashed=1;html=1;dashPattern=1 3;strokeWidth=2;" parent="1" edge="1">
          <mxGeometry width="50" height="50" relative="1" as="geometry">
            <mxPoint x="440" y="160" as="sourcePoint" />
            <mxPoint x="840" y="90" as="targetPoint" />
          </mxGeometry>
        </mxCell>
        <mxCell id="HoSw1rWqRXUjWcolSCxQ-26" value="" style="endArrow=none;dashed=1;html=1;dashPattern=1 3;strokeWidth=2;" parent="1" edge="1">
          <mxGeometry width="50" height="50" relative="1" as="geometry">
            <mxPoint x="40" y="160" as="sourcePoint" />
            <mxPoint x="440" y="160" as="targetPoint" />
          </mxGeometry>
        </mxCell>
        <mxCell id="HoSw1rWqRXUjWcolSCxQ-27" value="" style="endArrow=none;dashed=1;html=1;dashPattern=1 3;strokeWidth=2;" parent="1" edge="1">
          <mxGeometry width="50" height="50" relative="1" as="geometry">
            <mxPoint x="840" y="720" as="sourcePoint" />
            <mxPoint x="840" y="90" as="targetPoint" />
          </mxGeometry>
        </mxCell>
        <mxCell id="HoSw1rWqRXUjWcolSCxQ-28" value="" style="endArrow=none;dashed=1;html=1;dashPattern=1 3;strokeWidth=2;" parent="1" edge="1">
          <mxGeometry width="50" height="50" relative="1" as="geometry">
            <mxPoint x="40" y="720" as="sourcePoint" />
            <mxPoint x="840" y="720" as="targetPoint" />
          </mxGeometry>
        </mxCell>
        <mxCell id="HoSw1rWqRXUjWcolSCxQ-29" value="" style="endArrow=none;dashed=1;html=1;dashPattern=1 3;strokeWidth=2;" parent="1" edge="1">
          <mxGeometry width="50" height="50" relative="1" as="geometry">
            <mxPoint x="40" y="720" as="sourcePoint" />
            <mxPoint x="40" y="160" as="targetPoint" />
          </mxGeometry>
        </mxCell>
        <mxCell id="HoSw1rWqRXUjWcolSCxQ-30" value="Внутренняя сеть ЗСКБ" style="text;html=1;strokeColor=none;fillColor=none;align=center;verticalAlign=middle;whiteSpace=wrap;rounded=0;" parent="1" vertex="1">
          <mxGeometry x="650" y="690" width="180" height="20" as="geometry" />
        </mxCell>
        <mxCell id="HoSw1rWqRXUjWcolSCxQ-31" value="Публичная сеть (Internet)" style="text;html=1;strokeColor=none;fillColor=none;align=center;verticalAlign=middle;whiteSpace=wrap;rounded=0;fontColor=#0000CC;" parent="1" vertex="1">
          <mxGeometry x="290" y="10" width="147.5" height="20" as="geometry" />
        </mxCell>
        <mxCell id="HoSw1rWqRXUjWcolSCxQ-33" value="" style="endArrow=none;dashed=1;html=1;dashPattern=1 3;strokeWidth=2;fontColor=#0000FF;labelBorderColor=#0000FF;fillColor=#dae8fc;strokeColor=#0000FF;" parent="1" edge="1">
          <mxGeometry width="50" height="50" relative="1" as="geometry">
            <mxPoint x="40" y="10" as="sourcePoint" />
            <mxPoint x="440" y="10" as="targetPoint" />
          </mxGeometry>
        </mxCell>
        <mxCell id="HoSw1rWqRXUjWcolSCxQ-34" value="" style="endArrow=none;dashed=1;html=1;dashPattern=1 3;strokeWidth=2;fontColor=#0000FF;labelBorderColor=#0000FF;fillColor=#dae8fc;strokeColor=#0000FF;" parent="1" edge="1">
          <mxGeometry width="50" height="50" relative="1" as="geometry">
            <mxPoint x="40" y="10" as="sourcePoint" />
            <mxPoint x="40" y="140" as="targetPoint" />
          </mxGeometry>
        </mxCell>
        <mxCell id="HoSw1rWqRXUjWcolSCxQ-35" value="" style="endArrow=none;dashed=1;html=1;dashPattern=1 3;strokeWidth=2;fontColor=#0000FF;labelBorderColor=#0000FF;fillColor=#dae8fc;strokeColor=#0000FF;" parent="1" edge="1">
          <mxGeometry width="50" height="50" relative="1" as="geometry">
            <mxPoint x="40" y="140" as="sourcePoint" />
            <mxPoint x="440" y="140" as="targetPoint" />
          </mxGeometry>
        </mxCell>
        <mxCell id="HoSw1rWqRXUjWcolSCxQ-36" value="" style="endArrow=none;dashed=1;html=1;dashPattern=1 3;strokeWidth=2;fontColor=#0000FF;labelBorderColor=#0000FF;fillColor=#dae8fc;strokeColor=#0000FF;" parent="1" edge="1">
          <mxGeometry width="50" height="50" relative="1" as="geometry">
            <mxPoint x="440" y="140" as="sourcePoint" />
            <mxPoint x="440" y="10" as="targetPoint" />
          </mxGeometry>
        </mxCell>
      </root>
    </mxGraphModel>
  </diagram>
</mxfile>
